PathFileType	4	(x/y/z)	A01_STANDINGCAL_T0011.trc
DataRate	CameraRate	NumFrames	NumMarkers	Units	OrigDataRate	OrigDataStartFrame	OrigNumFrames
240	240	4	48	mm	240	451	1200
Frame#	Time	TOP_HEAD			R_AC			L_AC			R_ASIS			L_ASIS			R_PSIS			L_PSIS			SACRAL			L_IC			R_IC			L_GT			R_GT			R_LAT_KNEE			R_MED_KNEE			L_MED_KNEE			L_LAT_KNEE			R_TOE			L_TOE			R_1ST_MET			L_1ST_MET			L_5TH_MET			R_5TH_MET			R_LAT_ANK			R_MED_ANK			L_MED_ANK			L_LAT_ANK			L_HEEL_SUP			R_HEEL_SUP			L_HEEL_LAT			R_HEEL_LAT			L_HEEL_MED			R_HEEL_MED			R_LL_PROX_POST			R_LL_PROX_ANT			R_LL_DIST_ANT			R_LL_DIST_POST			R_THIGH_PROX_POST			R_THIGH_PROX_ANT			R_THIGH_DIST_ANT			R_THIGH_DIST_POST			L_PROS_PROX_ANT			L_PROS_PROX_POST			L_PROS_DIST_POST			L_PROS_DIST_ANT			L_THIGH_PROX_ANT			L_THIGH_PROX_POST			L_THIGH_DIST_POST			L_THIGH_DIST_ANT			
		X1	Y1	Z1	X2	Y2	Z2	X3	Y3	Z3	X4	Y4	Z4	X5	Y5	Z5	X6	Y6	Z6	X7	Y7	Z7	X8	Y8	Z8	X9	Y9	Z9	X10	Y10	Z10	X11	Y11	Z11	X12	Y12	Z12	X13	Y13	Z13	X14	Y14	Z14	X15	Y15	Z15	X16	Y16	Z16	X17	Y17	Z17	X18	Y18	Z18	X19	Y19	Z19	X20	Y20	Z20	X21	Y21	Z21	X22	Y22	Z22	X23	Y23	Z23	X24	Y24	Z24	X25	Y25	Z25	X26	Y26	Z26	X27	Y27	Z27	X28	Y28	Z28	X29	Y29	Z29	X30	Y30	Z30	X31	Y31	Z31	X32	Y32	Z32	X33	Y33	Z33	X34	Y34	Z34	X35	Y35	Z35	X36	Y36	Z36	X37	Y37	Z37	X38	Y38	Z38	X39	Y39	Z39	X40	Y40	Z40	X41	Y41	Z41	X42	Y42	Z42	X43	Y43	Z43	X44	Y44	Z44	X45	Y45	Z45	X46	Y46	Z46	X47	Y47	Z47	X48	Y48	Z48	

451	1.8766	589.49	1866.7	325.51	580.83	1593.8	492.86	595.5	1603.7	86.974	681.93	1093.9	489.17	712.08	1062	132.4	476.82	1100.6	343.24	494.54	1106.1	214.67	467.75	1075.8	274.56	669.91	1183.2	91.243	626.08	1196.5	499.85	647.31	972.13	84.831	608.18	985.63	518.09	549.45	581.35	470.43	596.11	568.71	345.77	605.44	558.35	305.57	592.99	576.08	147.87	774.86	72.579	452.95	776.82	85.509	172.59	698.06	57.589	395.4	695.91	57.141	225.28	670.08	50.749	95.096	651.49	45.978	523.63	526.56	111.03	476.06	565.56	117.48	378.75	565.31	126.57	208.76	540.16	123.11	141.41	453.81	73.395	173.24	448.46	69.535	408.3	466.1	45.671	142.71	452.14	45.553	443.19	472.32	44.851	206.23	462.88	43.624	381.89	517.09	399.71	500.77	452.84	404.89	466.79	472.81	323.82	468.65	524.68	324.13	491.5	550.52	862.89	495.45	619.23	876.11	514.49	616.12	784.54	508.96	550.5	773.09	490.47	638.18	492.77	157.13	584.16	493.73	143.57	577.64	430.85	147.16	630.07	437.37	159.48	689.06	822.07	127.63	622.57	834.3	104.1	623.64	758.96	119.61	684.98	748.92	140.24
452	1.8807	589.44	1866.7	325.53	580.79	1593.8	492.87	595.46	1603.7	86.989	681.92	1093.9	489.17	712.06	1062	132.41	476.81	1100.6	343.25	494.53	1106.1	214.68	467.74	1075.8	274.58	669.89	1183.2	91.252	626.07	1196.5	499.87	647.3	972.13	84.841	608.17	985.62	518.1	549.44	581.35	470.44	596.17	568.75	345.79	605.41	558.35	305.57	592.99	576.08	147.88	774.86	72.578	452.95	776.82	85.509	172.59	698.06	57.589	395.4	695.92	57.141	225.28	670.08	50.749	95.096	651.49	45.979	523.63	526.56	111.03	476.06	565.56	117.48	378.75	565.31	126.57	208.76	540.16	123.11	141.41	453.81	73.394	173.24	448.46	69.535	408.3	466.1	45.67	142.71	452.14	45.554	443.19	472.32	44.851	206.23	462.88	43.623	381.89	517.08	399.71	500.77	452.83	404.89	466.79	472.81	323.82	468.65	524.68	324.14	491.5	550.52	862.89	495.46	619.23	876.11	514.5	616.12	784.55	508.96	550.5	773.09	490.48	638.18	492.77	157.14	584.16	493.73	143.57	577.64	430.85	147.17	630.07	437.37	159.49	689.06	822.07	127.64	622.57	834.3	104.11	623.64	758.96	119.62	684.98	748.92	140.25
453	1.8849	589.39	1866.7	325.54	580.75	1593.8	492.88	595.43	1603.7	87.003	681.91	1093.9	489.18	712.05	1062	132.42	476.8	1100.6	343.26	494.53	1106.1	214.69	467.73	1075.8	274.59	669.88	1183.2	91.262	626.06	1196.5	499.88	647.3	972.13	84.851	608.16	985.62	518.1	549.43	581.35	470.45	596.24	568.8	345.81	605.39	558.35	305.58	592.99	576.08	147.89	774.86	72.576	452.95	776.82	85.509	172.59	698.06	57.588	395.4	695.92	57.141	225.28	670.08	50.748	95.096	651.49	45.979	523.63	526.56	111.03	476.06	565.56	117.48	378.75	565.31	126.57	208.76	540.16	123.11	141.41	453.81	73.393	173.24	448.46	69.536	408.3	466.1	45.67	142.71	452.14	45.555	443.18	472.32	44.851	206.23	462.88	43.623	381.89	517.08	399.71	500.77	452.83	404.89	466.79	472.81	323.82	468.64	524.68	324.14	491.49	550.51	862.9	495.47	619.22	876.11	514.5	616.11	784.55	508.97	550.49	773.09	490.49	638.18	492.77	157.14	584.16	493.73	143.58	577.64	430.85	147.17	630.07	437.37	159.49	689.05	822.07	127.65	622.56	834.3	104.11	623.63	758.96	119.62	684.97	748.92	140.25
454	1.8891	589.33	1866.7	325.56	580.71	1593.8	492.89	595.39	1603.7	87.016	681.9	1093.9	489.19	712.04	1062	132.43	476.79	1100.6	343.27	494.52	1106.1	214.71	467.72	1075.8	274.6	669.87	1183.2	91.272	626.05	1196.5	499.89	647.29	972.13	84.861	608.15	985.62	518.11	549.42	581.35	470.45	596.31	568.84	345.83	605.36	558.35	305.59	592.99	576.08	147.9	774.86	72.575	452.95	776.82	85.509	172.59	698.06	57.588	395.4	695.92	57.141	225.28	670.08	50.748	95.096	651.49	45.979	523.63	526.56	111.03	476.06	565.56	117.48	378.75	565.31	126.57	208.76	540.16	123.11	141.41	453.81	73.391	173.24	448.46	69.536	408.3	466.11	45.67	142.71	452.14	45.556	443.18	472.32	44.851	206.23	462.88	43.623	381.89	517.07	399.71	500.77	452.82	404.89	466.79	472.8	323.82	468.64	524.67	324.14	491.49	550.51	862.9	495.48	619.21	876.11	514.51	616.11	784.55	508.98	550.48	773.1	490.5	638.18	492.77	157.15	584.16	493.73	143.59	577.64	430.85	147.18	630.07	437.37	159.5	689.05	822.07	127.66	622.56	834.3	104.12	623.63	758.96	119.63	684.97	748.92	140.26
